<svg viewBox="0 0 350 500" xmlns="http://www.w3.org/2000/svg" xmlns:xlink="http://www.w3.org/1999/xlink" width="350.000000" height="500.000000" fill="none">
	<rect id="393 1" width="350.000000" height="500.000000" x="0.000000" y="0.000000" />
	<g id="g10">
		<g id="g12">
			<path id="path14" d="M265.656 2.53107C265.656 1.13889 264.262 0 262.558 0L3.09833 0C1.39389 0 0 1.13889 0 2.53107C0 3.9228 1.39389 5.06208 3.09833 5.06208L262.558 5.06208C264.262 5.06208 265.656 3.92279 265.656 2.53107" fill="rgb(208,225,244)" fill-rule="nonzero" transform="matrix(1,0,0,-1,32,451.092)" />
			<path id="path16" d="M0.067966 4.35089C-0.192586 3.35311 0.376302 2.88366 0.429077 2.68144C1.43852 -1.17356 12.028 0.140883 12.4546 0.542549C12.8807 0.943658 14.0413 11.5331 13.8674 12.0331C13.6935 12.5326 6.68574 12.6887 5.67852 12.7353C4.67131 12.782 2.04796 14.127 2.53407 13.7992C2.73684 13.6626 0.328518 5.34922 0.067966 4.35089Z" fill="rgb(45,31,23)" fill-rule="nonzero" transform="matrix(1,0,0,-1,88.2568,441.359)" />
			<path id="path18" d="M8.38742 0C7.98353 0 7.57686 0.0549994 7.17297 0.168335C5.27409 0.700561 3.98574 2.35389 3.72686 4.59167L0.0262994 36.5972C-0.222032 38.7422 1.31574 40.6828 3.4613 40.9306C5.60575 41.18 7.54686 39.6411 7.79463 37.4955L10.6685 12.6461L15.4752 18.8222C16.8018 20.5267 19.2585 20.8328 20.963 19.5067C22.6668 18.18 22.9735 15.7233 21.6469 14.0189L12.4158 2.15778C11.3263 0.758341 9.87965 0 8.38742 0Z" fill="rgb(230,98,79)" fill-rule="nonzero" transform="matrix(1,0,0,-1,88.7964,320.539)" />
			<path id="path20" d="M28.3525 5.65647C29.1375 4.89475 28.6619 0.636305 27.4497 0.446859C26.8086 0.347026 22.9086 0.0952488 20.7836 0.00869073C17.8758 -0.109809 11.8591 1.0048 9.09968 2.04147C7.51356 2.63758 4.62412 3.77475 4.62412 3.77475C4.62412 3.77475 0.416341 4.88691 0.190226 4.99914C-0.0358887 5.11136 0.00245497 6.88869 0.00245497 6.88869C0.00245497 6.88869 9.81024 8.26802 10.1847 8.10525C10.5597 7.94291 18.4158 3.59069 18.4158 3.59069L27.503 5.4503L28.3525 5.65647Z" fill="rgb(45,31,23)" fill-rule="nonzero" transform="matrix(1,0,0,-1,47.2349,450.662)" />
			<path id="path22" d="M0 16.0936L0.130005 6.73135C0.187785 2.57245 3.615 -0.433648 7.74612 0.0513509L28.0095 2.42913C32.1406 2.91413 35.5156 6.71358 35.51 10.873L35.4839 29.1958L1.35634e-05 16.0936" fill="rgb(90,36,47)" fill-rule="nonzero" transform="matrix(1,0,0,-1,57.1123,357.819)" />
			<path id="path24" d="M0.61008 10.9204C0.61008 10.9204 0.312852 8.72313 4.21342 9.03757C7.93619 9.33702 9.74896 13.8009 9.74896 13.8009L15.764 14.4731C15.764 14.4731 16.3267 11.7537 16.8384 11.122C18.2345 9.39757 21.7867 6.0998 21.7867 6.0998L28.7362 6.33658C28.7362 6.33658 29.569 0.798574 27.4417 0.626963C25.3145 0.455909 21.1051 0.151462 19.3317 0.00868395C17.559 -0.134148 8.07731 1.53252 8.07731 1.53252C8.07731 1.53252 0.109538 0.792074 0.103977 0.893629C-0.301581 8.43035 0.610093 10.9204 0.610093 10.9204" fill="rgb(45,31,23)" fill-rule="nonzero" transform="matrix(1,0,0,-1,87.6289,449.551)" />
			<path id="path26" d="M0.29834 0L12.4072 0.615448L12.37 2.45268L6.93334 3.35874L0 2.93208L0.29834 3.39086e-06" fill="rgb(45,31,23)" fill-rule="nonzero" transform="matrix(1,0,0,-1,87.375,450.145)" />
			<path id="path28" d="M0.235568 2.11784L7.13334 0L7.93168 1.03123L8.14778 2.48784L6.93667 3.56012L0 4.04729L0.235555 2.11784" fill="rgb(45,31,23)" fill-rule="nonzero" transform="matrix(1,0,0,-1,47.2793,449.106)" />
			<path id="path30" d="M29.8684 3.79556L29.8684 3.77995C29.8684 3.68706 29.8684 3.23762 29.8061 2.85051C29.7756 2.69556 29.7445 2.556 29.7134 2.41645L29.6978 2.3544L29.6511 2.21484L29.6356 2.13762L29.5739 1.99828L29.5583 1.93601C29.5272 1.85873 29.4961 1.78167 29.45 1.70378L29.4033 1.61112L29.3572 1.51756L29.2794 1.40928L29.2328 1.33206L29.1089 1.17711L29.0628 1.13045L28.97 1.02211L28.9078 0.976112L28.7839 0.882613L28.7528 0.867612C28.7067 0.820944 28.6444 0.789945 28.5822 0.774333L28.5361 0.743276L28.3961 0.696608L28.3344 0.681665C28.2722 0.665999 28.2105 0.650388 28.1489 0.650388C27.2033 0.57311 25.8561 0.464386 24.5077 0.355886C23.1755 0.24761 21.8122 0.13933 20.8366 0.0616082C20.6044 0.0466648 20.3872 0.0310533 20.2172 0.0153877C20.155 0 20.0928 0 20.0311 0L19.8139 0L19.6744 0.0153877L19.3805 0.0153877L19.2716 0.0310533C19.1944 0.0310533 19.1322 0.0466648 19.055 0.0466648L18.9466 0.0466648C18.8689 0.0616082 18.7916 0.0616082 18.6983 0.0770535L18.6211 0.0770535C18.5283 0.092665 18.435 0.108276 18.3267 0.108276L18.265 0.123722C18.1567 0.123722 18.0478 0.139333 17.9239 0.154945C16.1422 0.340502 13.7567 0.681668 11.82 0.976112C9.88387 1.27039 8.3811 1.51756 8.3811 1.51756C8.3811 1.51756 0.0927734 0.789945 0.0777723 0.88261C0.0155436 1.936 0 2.89711 0 3.76433L0 4.10544C0.0466715 9.15545 0.913886 10.906 0.913886 10.906C0.913886 10.906 1.44111 8.05545 5.67 8.82989C8.62889 9.37212 9.54278 12.316 9.77499 13.4777C9.85277 13.7721 9.86832 13.9577 9.86832 13.9577L11.3094 14.0821L14.7789 14.3605L16.065 14.4693C16.065 14.4693 16.1422 14.0821 16.2661 13.5704L16.2661 13.5549C16.2822 13.4777 16.3133 13.4154 16.3283 13.3382L16.3439 13.2766C16.3594 13.1988 16.3744 13.121 16.4056 13.0443L16.4211 12.9977C16.4367 12.9199 16.4522 12.8427 16.4833 12.7649L16.4833 12.7338C16.5145 12.641 16.5456 12.5638 16.5606 12.471L16.5761 12.4243C16.6072 12.331 16.6383 12.2538 16.6533 12.1766L16.6694 12.161C16.7467 11.3554 17.5678 10.4877 17.5678 10.4877C19.1478 8.70656 22.0917 6.08822 22.0917 6.08822C22.0917 6.08822 24.1361 5.8865 26.0105 6.04211C27.885 6.181 29.7289 5.59266 29.8522 3.98155C29.8522 3.91928 29.8522 3.85722 29.8683 3.79555" fill="rgb(73,45,42)" fill-rule="nonzero" transform="matrix(1,0,0,-1,87.3335,448.075)" />
			<path id="path32" d="M16.7156 7.71498L0 0C0.0466716 5.04999 0.913886 6.80054 0.913886 6.80054C0.913886 6.80054 1.44111 3.94999 5.67 4.72444C8.62889 5.26666 9.54278 8.21054 9.775 9.37221L14.7789 10.255L16.7156 7.71499" fill="rgb(45,31,23)" fill-rule="nonzero" transform="matrix(1,0,0,-1,87.3335,443.97)" />
			<path id="path34" d="M7.12343 6.60009C5.51566 6.98675 1.23733 8.33342 0.695664 6.80454C0.153998 5.27509 -0.00489637 2.73343 0.000108507 2.55232C0.00511338 2.37065 1.72789 -0.203233 2.07622 0.012875C2.42511 0.228987 6.85232 0.485097 6.73511 0.873429C6.61732 1.26121 7.12344 6.60009 7.12344 6.60009" fill="rgb(73,45,42)" fill-rule="nonzero" transform="matrix(1,0,0,-1,48.6484,441.952)" />
			<path id="path36" d="M0.163249 4.26005C-0.0973037 3.26172 0.0193549 2.88394 0.0721436 2.68171C1.08158 -1.17384 11.671 0.141161 12.0977 0.54227C12.5238 0.943935 13.6844 11.5334 13.5105 12.0328C13.3366 12.5328 6.32825 12.6889 5.32159 12.7356C4.31437 12.7823 1.69103 14.1273 2.17714 13.7989C2.37991 13.6623 0.423801 5.25838 0.163249 4.26005Z" fill="rgb(45,31,23)" fill-rule="nonzero" transform="matrix(1,0,0,-1,49.7041,439.026)" />
			<path id="path38" d="M27.73 0.382067C25.6545 0.0876228 21.41 0.0103455 21.41 0.0103455C21.0689 0.0103455 19.9228 -0.0209317 19.3028 0.0252889C19.1789 0.0409546 19.055 0.0409546 18.9156 0.0563457C18.8695 0.0563457 18.8072 0.0563457 18.7456 0.0719571C16.1272 0.304179 9.60501 1.37318 7.28112 2.55029C6.24334 3.07763 4.47723 3.57307 2.82 4.08413C1.31722 4.53357 0 4.87429 0 4.92096C0.139445 6.68696 0.341105 8.00363 0.55778 8.99529C0.821113 10.3742 1.13112 11.3808 1.41001 12.1092C1.81279 13.147 2.13779 13.612 2.20001 13.6892C2.10723 13.4414 1.13112 10.7303 5.59279 10.9475C9.1089 11.1175 9.40391 14.7425 9.40391 14.7425L18.435 14.3247C18.435 14.3247 17.955 11.2725 17.955 11.1486C18.1256 10.777 18.3734 10.4047 18.6678 10.0331C19.7523 8.62362 21.3478 7.2914 21.5645 7.05862L21.5334 7.05862C21.5956 7.02807 21.6267 6.99696 21.6267 6.99696C21.6267 6.99696 25.0189 5.18418 27.1572 5.13818C28.3345 5.1219 28.8306 4.1924 28.8461 3.23256C29.0006 1.9309 28.5356 0.505338 27.73 0.38206" fill="rgb(73,45,42)" fill-rule="nonzero" transform="matrix(1,0,0,-1,47.2407,448.689)" />
			<path id="path40" d="M17.2578 0.317931C16.9183 0.781261 16.0328 0.79793 14.0483 0.465154C11.0883 -0.0315076 1.97777 -0.825952 0 2.37793L0 2.39404C0.402778 3.43182 0.640557 4.01848 0.702772 4.09626C0.609999 3.84793 1.25944 5.40292 4.45444 4.79792C7.91389 4.14292 7.99388 5.02737 7.99388 5.02737L17.025 4.60959C17.025 4.60959 16.545 1.55738 16.545 1.43349C16.7156 1.06182 16.9633 0.6896 17.2578 0.317938" fill="rgb(45,31,23)" fill-rule="nonzero" transform="matrix(1,0,0,-1,48.6504,438.974)" />
			<path id="path42" d="M5.97175 1.32673C13.1134 -0.453274 19.0084 -0.39605 19.6734 1.22173C19.8884 1.75561 20.6579 6.7034 21.5895 13.0962C21.7206 14.0073 21.8568 14.9395 21.9929 15.8978C22.0873 16.5417 22.1762 17.1906 22.2706 17.8451C22.4012 18.7717 22.5373 19.709 22.6734 20.6567C24.3334 32.4162 27.0979 50.9145 27.0979 50.9145C27.1656 51.1923 29.3334 110.785 29.3334 110.785L9.39564 112.46L7.9873 105.481C7.47453 105.947 6.28064 95.1351 6.28064 93.2873C6.28064 67.0145 6.69953 49.914 6.56342 49.3962L2.81453 23.9345L2.4112 21.1856L2.12842 19.2901L1.72564 16.5417L0.0867513 5.41007C0.0867513 5.41007 -1.18047 3.10173 5.97175 1.32673" fill="rgb(128,28,49)" fill-rule="nonzero" transform="matrix(1,0,0,-1,49.0029,437.387)" />
			<path id="path44" d="M36.7617 1.73555C36.7617 1.73555 32.2539 1.16222 28.3961 1.02277L28.3961 0.976108C24.6161 0.94555 17.5983 0 17.5983 0L17.0406 10.5656L16.8705 13.6639L16.7622 15.6778L16.5911 18.7611L15.0272 48.04C14.965 48.8611 14.7328 50.9372 14.5 51.9905C12.2078 60.7122 10.7206 74.8878 10.86 81.0066L0 110.348L20.8055 115.461C20.8055 115.461 22.5555 105.282 25.3289 93.1061C29.0778 76.6377 34.6083 55.29 34.7633 51.1539L36.0183 20.1861L36.1422 17.1033L36.2194 15.0739L36.3433 11.9905L36.7617 1.73554" fill="rgb(128,28,49)" fill-rule="nonzero" transform="matrix(1,0,0,-1,67.2559,438.021)" />
			<path id="path46" d="M7.71206 0L6.56429 6.14278C5.45207 12.0983 3.93707 18.6606 2.97818 22.4711L1.45262 28.5311C1.45262 28.5311 -2.70405 32.6505 3.0454 32.6505C9.85262 32.6505 13.9093 27.3744 15.5832 21.2389C17.2309 15.1989 18.0293 11.2872 18.5615 8.43834L19.7093 2.295L7.71206 0Z" fill="rgb(246,139,17)" fill-rule="nonzero" transform="matrix(1,0,0,-1,80.9004,299.651)" />
			<path id="path48" d="M0 0L1.07777 0.206104L1.08055 0.192771L0 0Z" fill="rgb(223,75,40)" fill-rule="nonzero" transform="matrix(1,0,0,-1,94.2979,298.563)" />
			<path id="path50" d="M0 0C0.113891 5.34723 0.219997 10.3645 0.299438 14.1467L3.08721 0.564996L2.00944 0.358887L0 0Z" fill="rgb(233,92,27)" fill-rule="nonzero" transform="matrix(1,0,0,-1,92.2881,298.922)" />
			<path id="path52" d="M1.35634e-05 16.5175L0.441122 2.26134C0.620565 -1.89422 3.75945 0.830228 7.87335 1.4469L29.6028 4.70302C33.7161 5.31969 37.0756 9.22746 37.0689 13.3869L37.035 33.7041L0 16.5175" fill="rgb(128,28,49)" fill-rule="nonzero" transform="matrix(1,0,0,-1,55.561,358.47)" />
			<path id="path54" d="M10.9489 77.1317L28.0711 77.1317C33.6161 77.0867 37.4483 72.0467 37.4483 66.1317C37.4483 66.1317 36.4055 16.2061 36.27 12.4189C36.2561 12.0283 35.8183 11.2567 35.8183 11.2567C35.8183 11.2567 38.4033 13.0595 23.8889 12.945C6.82112 12.8111 0 0 0 0L0 66.4422C0 72.3572 5.40445 77.1772 10.9489 77.1317" fill="rgb(246,139,17)" fill-rule="nonzero" transform="matrix(1,0,0,-1,55.2822,344.099)" />
			<path id="path56" d="M0 0L0 4.27444L8.35055 7.12222L6.40722 23.9744L8.19388 21.4972C8.05054 21.4083 7.95443 21.25 7.95443 21.0706L7.95443 13.8528C7.95443 13.5772 8.17999 13.3522 8.45554 13.3522L10.4794 13.3522C10.4089 7.74944 9.61609 1.75779 6.13443 0.542223C5.7161 0.402778 5.26721 0.325561 4.77165 0.325561C1.85888 0.325561 0 0 0 0Z" fill="rgb(233,92,27)" fill-rule="nonzero" transform="matrix(1,0,0,-1,58.9062,305.721)" />
			<path id="path58" d="M37.981 42.5244C37.981 42.5244 37.7482 30.921 37.5315 13.8799C37.5315 13.8799 0.738756 -6.21285 0.211534 1.95159C0.180976 2.40049 0.165419 2.91159 0.134874 3.50047C0.118761 3.77936 0.118761 4.05825 0.118761 4.32159C-0.252903 16.1421 0.366537 48.9999 0.366537 48.9999L3.83709 47.4816L3.83709 41.4088C3.83709 41.4088 5.69598 41.7344 8.60875 41.7344C9.1043 41.7344 9.5532 41.8116 9.97153 41.951C15.8276 43.996 14.0771 59.5499 14.0771 64.0421L35.146 64.0421C35.146 42.5244 35.5643 42.5244 37.981 42.5244" fill="rgb(128,28,49)" fill-rule="nonzero" transform="matrix(1,0,0,-1,55.0688,347.13)" />
			<path id="path60" d="M0.118883 0C0.0327691 2.72999 0 6.58222 0 10.8922C0.000556098 20.9689 0.181112 33.5494 0.288886 40.1517L3.83723 41.3617L3.83723 37.0872C3.83723 37.0872 5.69611 37.4128 8.60889 37.4128C9.10444 37.4128 9.55333 37.49 9.97167 37.6294C10.5917 36.4678 10.9789 35.6928 10.9789 35.6928C11.1178 30.6272 13.865 29.1883 17.2839 29.1883C19.5305 29.1883 22.0661 29.8089 24.3433 30.43C26.6206 31.0511 28.6383 31.6717 29.8478 31.6717C30.595 31.6717 31.0333 31.4344 31.0333 30.8133C31.0333 25.2289 21.7967 21.2144 14.8028 18.4222C7.80946 15.63 0.118896 14.2528 0.118896 0" fill="rgb(105,24,42)" fill-rule="nonzero" transform="matrix(1,0,0,-1,55.0688,342.809)" />
			<path id="path62" d="M0 10.6728C0.603895 2.27 2.68055 0 5.96445 0C8.65834 0 10.89 3.71889 10.7933 4.58779C10.6967 5.45723 9.7311 10.5761 8.95833 10.8661C8.18556 11.1556 0 10.6728 0 10.6728Z" fill="rgb(139,47,35)" fill-rule="nonzero" transform="matrix(1,0,0,-1,59.8481,251.411)" />
			<path id="path64" d="M8.291 1.96064C8.00267 2.53952 7.77433 1.81231 7.62378 1.0851C7.496 0.4662 7.42488 -0.153239 7.421 0.0339898C7.28434 7.18731 1.15823 1.86176 0.674899 9.78123C0.263238 16.5346 0.205458 16.5935 0.023234 19.8746C-0.338989 26.394 3.44823 33.3107 17.3821 33.204C25.1393 33.1446 27.1288 30.1324 28.8782 26.1818C32.136 18.8235 29.506 9.37126 29.506 9.37126L8.291 1.96064Z" fill="rgb(139,47,35)" fill-rule="nonzero" transform="matrix(1,0,0,-1,59.2456,251.582)" />
			<path id="path66" d="M11.6544 2.75222C11.6544 2.75222 11.7606 0 7.27611 0C2.79222 0 0 2.75222 0 2.75222L0 16.4083L11.6544 17.0544L11.6544 2.75222Z" fill="rgb(248,164,120)" fill-rule="nonzero" transform="matrix(1,0,0,-1,68.4233,270.218)" />
			<path id="path68" d="M11.6544 0.0724282C8.60056 -0.300916 0.0822212 0.792994 0.0822212 2.79909C0.0822212 4.80519 0 13.7063 0 13.7063L11.6539 13.6274L11.6544 0.0724282Z" fill="rgb(230,98,79)" fill-rule="nonzero" transform="matrix(1,0,0,-1,68.4233,264.615)" />
			<path id="path70" d="M26.3772 16.0894C26.3772 13.4055 24.0383 7.21935 22.5867 5.36879C21.9672 4.57935 21.1128 2.786 19.1472 2.19046C17.3589 1.64825 16.3005 1.26657 16.3005 0.300456C16.3005 -0.747884 14.1 1.2838 13.3483 1.2838C4.41555 1.2838 0 10.9066 0 17.4616L2.75278 26.061C2.75278 33.2377 7.51556 38.396 14.4478 38.3433C21.38 38.2905 26.9617 33.5638 26.9617 26.3872L26.3772 16.0894" fill="rgb(230,98,79)" fill-rule="nonzero" transform="matrix(1,0,0,-1,63.769,262.627)" />
			<path id="path72" d="M22.7739 24.989L22.6812 22.1384L22.4334 14.4084C22.1701 6.87899 20.4812 -0.0765788 11.3412 0.000651042C2.21617 0.0628798 -0.231052 11.1084 0.0167236 18.2656L0.450616 24.4934C0.450616 24.7568 0.450616 25.0201 0.466173 25.2679C0.65229 34.6095 4.44784 38.0329 11.1551 38.0329C20.3112 38.0329 23.0223 32.1618 22.7739 24.989Z" fill="rgb(248,164,120)" fill-rule="nonzero" transform="matrix(1,0,0,-1,68.1377,260.951)" />
			<path id="path74" d="M2.51911 2.71269e-05C3.82022 -0.00219727 4.9269 0.733374 4.86967 1.48281C4.84857 1.7556 4.57634 2.08502 4.06634 1.84446C3.83246 1.73446 3.19967 1.60558 2.52745 1.61001C1.85523 1.61388 1.49135 1.7489 1.11134 1.86334C0.28357 2.11169 0.0230035 1.78557 0.00189887 1.51335C-0.0558811 0.764462 1.21801 0.0144586 2.51913 0" fill="rgb(230,98,79)" fill-rule="nonzero" transform="matrix(1,0,0,-1,80.2622,248.272)" />
			<path id="path76" d="M6.78329 5.13988C6.97273 2.46542 5.61329 0.168186 3.74608 0.00876195C1.87885 -0.150689 0.211629 1.88821 0.0221897 4.56267C-0.167806 7.23713 0.873304 9.31935 2.72219 9.64989C4.57108 9.97989 6.5933 7.81433 6.78331 5.13988" fill="rgb(230,98,79)" fill-rule="nonzero" transform="matrix(1,0,0,-1,61.5073,247.169)" />
			<path id="path78" d="M0 1.15947C0 0.52392 0.519452 0.00447587 1.16 2.71265e-05C1.80056 -0.00496414 2.31999 0.506125 2.31999 1.14167C2.31999 1.77722 1.80054 2.29609 1.16 2.30111C0.519438 2.3061 0 1.79501 0 1.15947Z" fill="rgb(59,37,35)" fill-rule="nonzero" transform="matrix(1,0,0,-1,76.1934,242.597)" />
			<path id="path80" d="M0 1.16001C0 0.524465 0.519452 0.00501842 1.16 2.71266e-05C1.80056 -0.00442163 2.31999 0.506697 2.31999 1.14225C2.31999 1.77725 1.80054 2.29667 1.16 2.30169C0.519438 2.30614 0 1.79502 0 1.16004" fill="rgb(59,37,35)" fill-rule="nonzero" transform="matrix(1,0,0,-1,86.436,242.776)" />
			<path id="path82" d="M0.72461 0C0.330716 0 0.00794814 0.315564 0.000162761 0.710555C-0.00816515 1.11111 0.309611 1.44167 0.710165 1.45L5.92961 1.55501C6.32961 1.57001 6.66072 1.245 6.66906 0.844452C6.67683 0.444443 6.35905 0.113335 5.9585 0.105577L0.739611 0.000569659L0.72461 2.71266e-05" fill="rgb(139,47,35)" fill-rule="nonzero" transform="matrix(1,0,0,-1,73.4536,237.44)" />
			<path id="path84" d="M5.22027 2.71265e-05L5.1675 0.00168185L0.673044 0.326115C0.273601 0.355005 -0.0269641 0.702225 0.001926 1.10166C0.0308161 1.5011 0.379708 1.80055 0.777482 1.7722L5.27193 1.44831C5.67082 1.41888 5.97139 1.0722 5.9425 0.672765C5.91527 0.291095 5.59694 0 5.22027 0" fill="rgb(139,47,35)" fill-rule="nonzero" transform="matrix(1,0,0,-1,85.1514,237.854)" />
			<path id="path86" d="M0.777778 7.79023C0.777778 11.8547 2.59833 15.4852 5.43556 17.8608C4.06777 19.5597 3.57167 22.1002 3.86333 22.3336C4.34611 22.7197 10.6072 27.3736 17.9961 23.0997C23.0561 20.173 25.3711 18.2086 24.505 16.1313L24.5389 16.0602L24.495 16.1058C23.7116 14.2597 21.9733 13.0613 20.4278 13.0613C13.9567 13.0613 14.0939 16.8613 9.27221 16.4902C7.38889 16.3453 4.52778 15.1502 4.52778 10.4414C4.52778 5.33469 3.69222 0.00857205 3.65945 0.00691732C2.14501 -0.0914172 2.125 0.891928 2.125 0.891928C2.125 3.59581 1.72 5.10916 0 5.91415L0.777778 7.79026" fill="rgb(139,47,35)" fill-rule="nonzero" transform="matrix(1,0,0,-1,64.7017,243.271)" />
			<path id="path88" d="M4.16261 2.71267e-05L4.15206 2.71267e-05C2.33929 0.000569662 1.05539 0.257813 0.335951 0.764459C-0.0212674 1.01557 -0.107381 1.50947 0.144287 1.86667C0.395955 2.22445 0.889838 2.31001 1.24707 2.05835C1.6693 1.76112 2.7554 1.58336 4.15318 1.58279L4.16262 1.58279C4.92262 1.58279 5.99651 1.63279 6.5954 2.05501C6.95207 2.30724 7.44596 2.22168 7.69819 1.86445C7.95041 1.50779 7.86485 1.01389 7.50764 0.761665C6.55264 0.0877821 5.21986 0 4.16264 0" fill="rgb(230,98,79)" fill-rule="nonzero" transform="matrix(1,0,0,-1,77.5308,254.13)" />
			<path id="path90" d="M0.00221168 0L0 0.0588921L0.00221168 0Z" fill="rgb(90,36,47)" fill-rule="nonzero" transform="matrix(1,0,0,-1,84.3833,352.773)" />
			<path id="path92" d="M0 0.0222371L0.00100098 0L0 0.0222371Z" fill="rgb(90,36,47)" fill-rule="nonzero" transform="matrix(1,0,0,-1,84.3706,352.206)" />
			<path id="path94" d="M9.11278 30.3556C8.61111 33.4317 7.91333 36.3989 7.91333 36.3989C5.11389 30.8583 2.22055 31.2878 0.162218 31.9378L0 23.6511L4.96611 0.765558C5.02556 0.550558 5.08833 0.287781 5.15056 0C4.00777 10.0672 10.3111 23.0089 9.11278 30.3556Z" fill="rgb(94,22,39)" fill-rule="nonzero" transform="matrix(1,0,0,-1,76.8804,386.789)" />
			<path id="path96" d="M0.00111987 0.0327776L0 0L0.00111987 0.0327776Z" fill="rgb(90,36,47)" fill-rule="nonzero" transform="matrix(1,0,0,-1,84.3784,351.662)" />
			<path id="path98" d="M0.0211148 0L0 0.120005L0.0211148 0Z" fill="rgb(90,36,47)" fill-rule="nonzero" transform="matrix(1,0,0,-1,84.5728,354.6)" />
			<path id="path100" d="M0.00666555 0L0 0.0549842L0.00666555 0Z" fill="rgb(90,36,47)" fill-rule="nonzero" transform="matrix(1,0,0,-1,84.4824,353.942)" />
			<path id="path102" d="M0.00833045 0L0 0.0872158L0.00833045 0Z" fill="rgb(90,36,47)" fill-rule="nonzero" transform="matrix(1,0,0,-1,84.4194,353.386)" />
			<path id="path104" d="M14.2944 0C13.4499 0 12.6127 0.167779 11.8277 0.506117C10.0599 1.26722 8.73549 2.81501 8.19438 4.75278L0.144938 33.5905C-0.435615 35.6711 0.779934 37.8278 2.85994 38.4083C4.93994 38.9883 7.09661 37.7733 7.67772 35.6933L15.2688 8.49833L33.4783 18.1055C35.3888 19.1128 37.7538 18.3817 38.7616 16.4717C39.7694 14.5617 39.0377 12.1961 37.1277 11.1883L17.41 0.785549C16.4205 0.263333 15.3516 0 14.2944 0" fill="rgb(248,164,120)" fill-rule="nonzero" transform="matrix(1,0,0,-1,53.708,320.753)" />
			<path id="path106" d="M15.3681 36.2089C2.64362 36.2089 -0.115262 28.6394 0.00362142 22.2778C0.120294 16.0155 2.69085 0 2.69085 0L16.1109 4.57666L14.1009 22.005L15.3681 36.2089" fill="rgb(246,139,17)" fill-rule="nonzero" transform="matrix(1,0,0,-1,51.146,303.176)" />
			<path id="path108" d="M5.27332 20.7644C11.3483 20.7644 12.7655 11.0406 12.685 4.64777L10.59 0L8.19277 4.64777C8.27332 11.0406 6.76499 20.5572 0 20.1761C0 20.1761 1.51222 20.46 2.575 20.6116C3.63777 20.7628 5.27334 20.7644 5.27334 20.7644" fill="rgb(128,28,49)" fill-rule="nonzero" transform="matrix(1,0,0,-1,60.958,287.732)" />
			<path id="path110" d="M2.86834 19.2155C2.86834 19.2155 1.23334 19.3755 0.170559 19.2239L0.0555555 19.2072L0.0555555 18.7183C0.0555555 18.7183 0.0622286 18.5433 0 18.2822C4.725 16.5433 5.85777 8.64834 5.78777 3.09833L8.39276 0L10.195 3.09833C10.275 9.49223 8.94331 19.2155 2.86831 19.2155" fill="rgb(128,28,49)" fill-rule="nonzero" transform="matrix(1,0,0,-1,80.022,286.183)" />
			<path id="path112" d="M0 2.13138C1.93612 3.16416 4.37889 5.99026 5.43501 7.00916C6.49112 8.02805 11.0456 7.88527 11.3 7.00916C11.5539 6.1336 11.3683 4.20805 11.3 3.94416C11.2317 3.68083 10.645 2.77694 10.3572 2.51861C10.0695 2.26028 9.70279 2.64583 9.03668 2.13139C8.37057 1.61694 5.56501 1.16306 5.26723 0.969727C4.97 0.775838 2.79778 0.0658366 2.4639 0.00139703C2.13001 -0.0630425 0 2.1314 0 2.1314" fill="rgb(248,164,120)" fill-rule="nonzero" transform="matrix(1,0,0,-1,82.7002,307.12)" />
			<path id="path114" d="M21.8917 0C21.8139 0.38501 21.5206 0.711101 21.0489 0.985L21.3917 0.959989L21.4444 0.958335C21.6289 0.958335 21.7994 1.02832 21.9289 1.14499L21.8917 0ZM0 0.040012C0.101115 1.12668 0.19222 2.33779 0.24722 3.58947C0.339437 4.33168 0.457221 5.04946 0.599447 5.73948C4.74278 6.86448 9.69278 7.51561 14.5506 7.51561C16.8889 7.51561 18.3211 7.61283 19.295 7.61283C20.2683 7.61283 20.7839 7.51561 21.2889 7.12837C21.335 7.13225 21.3789 7.14948 21.4194 7.17948C21.5072 7.24282 21.5822 7.36448 21.6417 7.5356C21.79 6.81503 21.8894 6.06449 21.9455 5.29005C21.9822 4.77838 22 4.25671 22 3.7267C22 3.43669 21.9944 3.14502 21.9844 2.85059L21.9628 2.18891C21.8433 2.31169 21.68 2.3928 21.4961 2.40669L17.0017 2.73058C16.9839 2.73224 16.9667 2.73281 16.9495 2.73281C16.5756 2.73281 16.2567 2.44447 16.2267 2.06503C14.925 2.1728 13.4639 2.22114 11.915 2.22114C11.6772 2.22114 11.4372 2.22003 11.1956 2.2178C11.1872 2.60892 10.8706 2.92779 10.4828 2.92779C10.4739 2.92779 10.465 2.92725 10.4561 2.92725L5.23667 2.82224C4.83611 2.81391 4.51834 2.48335 4.52667 2.08279C4.52778 2.02002 4.53722 1.95891 4.55333 1.90113C2.06778 1.64445 0.136108 1.1489 0 0.040012Z" fill="rgb(221,101,72)" fill-rule="nonzero" transform="matrix(1,0,0,-1,68.9272,238.812)" />
			<path id="path116" d="M0.0268283 0C0.0107151 0.0577805 0.00127496 0.118898 0.00016276 0.18167C-0.00816514 0.582227 0.309611 0.912797 0.710164 0.921125L5.9296 1.02613C5.93849 1.02613 5.94738 1.02668 5.95627 1.02668C6.34405 1.02668 6.66071 0.707771 6.66905 0.316681C5.76627 0.308353 4.83906 0.285023 3.8996 0.24889C2.57294 0.193334 1.2346 0.125001 0.0268283 0Z" fill="rgb(120,33,26)" fill-rule="nonzero" transform="matrix(1,0,0,-1,73.4536,236.911)" />
			<path id="path118" d="M5.21776 0L5.16499 0.00165473L4.82221 0.0266656C3.85721 0.587212 2.14389 0.928331 0 1.10666C0.0300021 1.48611 0.34889 1.77444 0.722777 1.77444C0.740002 1.77444 0.757228 1.7739 0.774996 1.77222L5.26942 1.44832C5.45332 1.43443 5.61665 1.35333 5.73608 1.23055L5.70219 0.186659C5.57274 0.069987 5.4022 0 5.21775 0" fill="rgb(120,33,26)" fill-rule="nonzero" transform="matrix(1,0,0,-1,85.1538,237.854)" />
			<path id="path120" d="M0 2.71267e-05C0.0244417 1.24948 0.108333 2.44892 0.251117 3.58946C0.196117 2.33781 0.10501 1.12668 0.00389277 0.0400119C0.00222444 0.0266655 0.00111222 0.0133463 0 0" fill="rgb(120,33,26)" fill-rule="nonzero" transform="matrix(1,0,0,-1,68.9233,238.812)" />
			<path id="path122" d="M31.7283 7.11783C30.7183 7.89284 29.6656 7.50507 24.9905 7.50507C19.6917 7.50507 14.2833 6.73062 9.93221 5.41118C5.52888 4.08119 2.21499 2.19119 1.2411 0.018419C0.78555 -0.316569 0.0783284 3.9873 0.0105523 7.08118C0 7.25395 0 7.41617 0 7.57896C0 8.79895 0.151666 10.0084 0.455553 11.1756C1.79055 16.2284 6.06333 20.5373 13.8489 21.7728L13.9272 21.7884C14.7961 21.9245 15.7072 22.0189 16.6705 22.0817C17.0111 22.1023 17.3411 22.1134 17.6705 22.1134C19.7072 22.1395 21.4928 21.8356 23.0422 21.3067C23.1522 21.27 23.2628 21.2334 23.3672 21.1861C27.3517 19.7306 29.7705 16.7623 31.0167 13.935C32.5666 10.4478 32.4405 7.17561 31.7283 7.11783Z" fill="rgb(246,139,17)" fill-rule="nonzero" transform="matrix(1,0,0,-1,58.4883,238.801)" />
			<path id="path124" d="M5.26389 6.05732C4.42388 6.01676 3.53389 6.04178 2.60889 6.06676C1.76444 6.08955 0.890557 6.11231 0 6.0851C0.569444 4.27344 0.772217 2.2162 0.696669 0.0356445C6.6889 -0.26492 10.2939 1.38786 11.1389 3.04009C11.9711 4.66621 10.1306 6.29232 5.26389 6.05732Z" fill="rgb(216,87,30)" fill-rule="nonzero" transform="matrix(1,0,0,-1,90.2168,235.997)" />
			<path id="path126" transform="matrix(1,0,0,-1,59.7285,238.784)" />
			<path id="path128" d="M0 0C0.836671 0.524439 1.81555 1.01443 2.90668 1.46443C1.81557 1.01443 0.836671 0.524439 0 0Z" fill="rgb(176,52,33)" fill-rule="nonzero" transform="matrix(1,0,0,-1,62.6152,235.878)" />
			<path id="path130" d="M1.35638e-05 0C0.0989075 0.0277788 0.198357 0.0555576 0.298906 0.0822241C0.29835 0.0822241 0.298906 0.0827667 0.29835 0.0822241C0.198344 0.0549879 0.0988939 0.0277788 0 0" fill="rgb(234,104,54)" fill-rule="nonzero" transform="matrix(1,0,0,-1,69.2285,233.155)" />
			<path id="path132" d="M0 2.7127e-05C0.896105 0.369469 1.86778 0.711703 2.89888 1.02336C3.16444 1.10393 3.43388 1.18225 3.70666 1.25837C3.43334 1.1817 3.16333 1.10336 2.89777 1.02279C1.86721 0.711133 0.895548 0.368899 0 0" fill="rgb(176,52,33)" fill-rule="nonzero" transform="matrix(1,0,0,-1,65.5215,234.414)" />
			<path id="path134" d="M0 0C0.000556098 0.000542536 0 0 0.000556098 0C4.14334 1.12555 9.09388 1.77667 13.9522 1.77667C16.2906 1.77667 17.7222 1.87389 18.6961 1.87389C19.6694 1.87389 20.185 1.77721 20.69 1.38944C20.7361 1.39331 20.7794 1.41054 20.82 1.44C20.7794 1.41 20.7356 1.39277 20.6894 1.38889C20.1844 1.77613 19.6689 1.87335 18.6956 1.87335C17.7217 1.87335 16.2894 1.77613 13.9511 1.77613C9.09334 1.77613 4.14334 1.125 0 0Z" fill="rgb(218,77,36)" fill-rule="nonzero" transform="matrix(1,0,0,-1,69.5269,233.073)" />
			<path id="path136" d="M0 0C0.109999 2.13612 3.81722 5.32443 12.325 7.41889C20.8328 9.51334 26.3306 9.90554 26.0689 11.8694C25.8383 13.5972 25.5083 19.0789 22.1261 21.1678C26.1105 19.7122 28.5294 16.7439 29.7755 13.9167C30.6222 12.0111 30.9689 10.17 30.9933 8.88221C30.8255 8.88056 30.6572 8.87722 30.4883 8.87166C30.6266 8.43109 30.7439 7.9761 30.84 7.50778C30.7805 7.33612 30.7061 7.21446 30.6183 7.15055C30.5778 7.12112 30.5344 7.10389 30.4883 7.09999C29.9833 7.48776 29.4678 7.58444 28.4944 7.58444C27.5205 7.58444 26.0889 7.48722 23.7506 7.48722C18.8922 7.48722 13.9417 6.8361 9.79888 5.71056C9.69832 5.68389 9.59888 5.65611 9.5 5.62833C9.22723 5.55222 8.95778 5.4739 8.69222 5.39334C7.6611 5.08168 6.68944 4.73945 5.79333 4.37001C4.70223 3.92 3.72333 3.43001 2.88666 2.90557C1.47667 2.02279 0.467773 1.04392 0 2.71267e-05" fill="rgb(233,92,27)" fill-rule="nonzero" transform="matrix(1,0,0,-1,59.7285,238.784)" />
			<path id="path138" d="M0.351664 2.71268e-05C0.255556 0.468372 0.13833 0.92337 0 1.36391C0.168888 1.36947 0.337219 1.37281 0.504995 1.37446C0.515547 0.784454 0.45888 0.310575 0.351664 0" fill="rgb(215,70,32)" fill-rule="nonzero" transform="matrix(1,0,0,-1,90.2168,231.276)" />
			<path id="path140" d="M29.8006 5.2479C25.9244 5.34401 24.6095 3.49346 16.4611 0.841253C10.2794 -1.17429 4.26001 0.944036 0 1.88625C1.45611 3.21237 16.2917 5.48792 24.4767 5.5457C26.6067 5.5607 29.4444 5.30069 29.8006 5.24793" fill="rgb(250,189,25)" fill-rule="nonzero" transform="matrix(1,0,0,-1,68.4233,235.279)" />
			<path id="path142" d="M0 2.13138C1.93667 3.16416 4.37889 5.99027 5.43556 7.00917C6.49168 8.02862 11.0461 7.88528 11.3 7.00917C11.5545 6.13361 11.3689 4.20806 11.3 3.94417C11.2317 3.68083 10.645 2.77694 10.3578 2.51861C10.07 2.26084 9.70335 2.64584 9.03724 2.13139C8.37113 1.61695 5.56501 1.16306 5.26778 0.969728C4.97056 0.775839 2.79834 0.0658367 2.46445 0.00139703C2.13056 -0.0630426 0 2.13141 0 2.13141" fill="rgb(248,164,120)" fill-rule="nonzero" transform="matrix(1,0,0,-1,83.3823,307.992)" />
			<path id="path144" d="M19.2978 0L0 91.6222L19.2978 0" fill="rgb(183,184,196)" fill-rule="nonzero" transform="matrix(1,0,0,-1,105.622,417.55)" />
			<path id="path146" d="M24.3188 6.78168e-06C21.9927 6.78168e-06 19.9049 1.62389 19.4066 3.99056L0.108805 95.6133C-0.462863 98.3289 1.27492 100.994 3.99048 101.566C6.7077 102.138 9.3716 100.401 9.94325 97.685L29.241 6.06222C29.8132 3.34611 28.0755 0.681112 25.3593 0.109443C25.0105 0.0355564 24.6616 0 24.3188 0" fill="rgb(46,45,44)" fill-rule="nonzero" transform="matrix(1,0,0,-1,100.596,422.576)" />
			<path id="path148" d="M46.1933 7.74278C46.3222 3.48444 42.9416 0 38.6817 0L7.74555 0C3.48555 0 0 3.48555 0 7.74611L0 67.7205C0 71.9805 2.70722 77.6617 6.01667 80.3444L37.0744 105.526C40.3839 108.209 43.1967 106.92 43.3256 102.662L46.1933 7.74277" fill="rgb(242,87,26)" fill-rule="nonzero" transform="matrix(1,0,0,-1,80.6987,435.813)" />
			<path id="path150" d="M45.6733 54.0528L44.5728 33.7906L0 0L0 16.9783L45.6733 54.0528Z" fill="rgb(247,149,83)" fill-rule="nonzero" transform="matrix(1,0,0,-1,80.7021,397.038)" />
			<path id="path152" d="M45.6733 43.3566L44.5728 33.7905L0 0L0 6.28166L45.6733 43.3566Z" fill="rgb(247,149,83)" fill-rule="nonzero" transform="matrix(1,0,0,-1,80.7021,411.211)" />
			<path id="path154" d="M2.32389 0C1.06445 0 0 1.06445 0 2.32389L0 97.5494C0 98.8089 1.06444 99.8733 2.32389 99.8733L68.1689 99.8733C69.4289 99.8733 70.4928 98.8089 70.4928 97.5494L70.4928 2.32389C70.4928 1.06444 69.4289 0 68.1689 0L2.32389 0Z" fill="rgb(222,72,31)" fill-rule="nonzero" transform="matrix(1,0,0,-1,118.267,430.391)" />
			<path id="path156" d="M73.5911 110.718L7.74611 110.718C3.48556 110.718 0 107.232 0 102.972L0 7.74611C0 3.48555 3.48556 0 7.74611 0L73.5911 0C77.8517 0 81.3372 3.48555 81.3372 7.74611L81.3372 102.972C81.3372 107.232 77.8517 110.718 73.5911 110.718ZM70.4928 99.8733L70.4928 10.8444L10.8444 10.8444L10.8444 99.8733L70.4928 99.8733Z" fill="rgb(66,83,84)" fill-rule="nonzero" transform="matrix(1,0,0,-1,112.844,435.813)" />
			<path id="path158" d="M2.32389 0C1.06445 0 0 1.06445 0 2.32389L0 97.5494C0 98.8089 1.06444 99.8733 2.32389 99.8733L74.2339 99.8733C75.4933 99.8733 76.5578 98.8089 76.5578 97.5494L76.5578 2.32389C76.5578 1.06444 75.4933 0 74.2339 0L2.32389 0Z" fill="rgb(196,65,33)" fill-rule="nonzero" transform="matrix(1,0,0,-1,124.56,430.391)" />
			<path id="path160" d="M79.6561 110.718L7.74611 110.718C3.48611 110.718 0 107.232 0 102.972L0 7.74611C0 3.48555 3.48611 0 7.74611 0L79.6561 0C83.9161 0 87.4017 3.48555 87.4017 7.74611L87.4017 102.972C87.4017 107.232 83.9161 110.718 79.6561 110.718ZM76.5578 99.8733L76.5578 10.8444L10.8444 10.8444L10.8444 99.8733L76.5578 99.8733Z" fill="rgb(46,45,44)" fill-rule="nonzero" transform="matrix(1,0,0,-1,119.137,435.813)" />
			<path id="path162" d="M16.0344 1.35634e-05L0 1.35634e-05L0 342.9L16.0344 342.9L16.0344 0" fill="rgb(46,45,44)" fill-rule="nonzero" transform="matrix(1,0,0,-1,134.063,435.813)" />
			<path id="path164" d="M5.18944 0L0 9.65611L0 246.931L5.18944 246.931L5.18944 0Z" fill="rgb(66,83,84)" fill-rule="nonzero" transform="matrix(1,0,0,-1,134.063,339.844)" />
			<path id="path166" d="M1.35634e-05 0L1.35634e-05 10.0911L47.625 10.0911L47.625 0L0 0" fill="rgb(46,45,44)" fill-rule="nonzero" transform="matrix(1,0,0,-1,141.941,257.998)" />
			<path id="path168" d="M1.35634e-05 0L1.35634e-05 10.0911L47.6244 10.0906L47.6244 2.71267e-05L0 2.71267e-05" fill="rgb(46,45,44)" fill-rule="nonzero" transform="matrix(1,0,0,-1,141.942,208.536)" />
			<path id="path170" d="M1.35634e-05 0L1.35634e-05 10.0911L47.625 10.0911L47.625 0L0 0" fill="rgb(46,45,44)" fill-rule="nonzero" transform="matrix(1,0,0,-1,141.941,420.06)" />
			<path id="path172" d="M1.35634e-05 0L1.35634e-05 10.0911L47.625 10.0911L47.625 0L0 0" fill="rgb(46,45,44)" fill-rule="nonzero" transform="matrix(1,0,0,-1,141.941,125.153)" />
			<path id="path174" d="M1.35634e-05 0L1.35634e-05 10.0911L47.625 10.0911L47.625 0L0 0" fill="rgb(46,45,44)" fill-rule="nonzero" transform="matrix(1,0,0,-1,141.941,335.233)" />
			<path id="path176" d="M0 0L0 10.0911L168.016 10.0911L168.016 0L0 0Z" fill="rgb(46,45,44)" fill-rule="nonzero" transform="matrix(1,0,0,-1,141.941,274.168)" />
			<path id="path178" d="M0 0L16.0349 0L16.0349 342.9L0 342.9L0 0Z" fill="rgb(46,45,44)" fill-rule="nonzero" transform="matrix(1,0,0,-1,177.336,435.813)" />
			<path id="path180" d="M126.521 0L0 0L0 10.1167L126.521 10.1167L126.521 0Z" fill="rgb(196,65,33)" fill-rule="nonzero" transform="matrix(1,0,0,-1,191.719,268.725)" />
			<path id="path182" d="M106.305 0L0 0L0 10.1167L106.305 10.1167L106.305 0Z" fill="rgb(139,49,43)" fill-rule="nonzero" transform="matrix(1,0,0,-1,193.278,268.725)" />
			<path id="path184" d="M105.44 0L0 0L0 10.1167L105.44 10.1167L105.44 0Z" fill="rgb(196,65,33)" fill-rule="nonzero" transform="matrix(1,0,0,-1,165.988,268.725)" />
			<path id="path186" d="M0 0L104.971 0L104.971 10.0894L73.6822 15.0105L43.7756 19.6394L16.765 23.8227L13.9845 24.2516L0.0572374 24.2516L2.71267e-05 0" fill="rgb(242,87,26)" fill-rule="nonzero" transform="matrix(1,0,0,-1,145.123,268.727)" />
			<path id="path188" d="M0 10.0894L5.33 0L73.3833 0L68.0533 10.0894L0 10.0894Z" fill="rgb(196,65,33)" fill-rule="nonzero" transform="matrix(1,0,0,-1,168.507,268.727)" />
			<path id="path190" d="M0 14.165L0 0L7.49612 0L7.49612 13.7356L4.71669 14.165L2.71267e-05 14.165" fill="rgb(196,65,33)" fill-rule="nonzero" transform="matrix(1,0,0,-1,154.392,258.638)" />
			<path id="path192" d="M0 0L78.5267 0L78.5267 166.284L0 166.284L0 0Z" fill="rgb(250,188,127)" fill-rule="nonzero" transform="matrix(1,0,0,-1,158.033,258.639)" />
			<path id="path194" d="M0 0L73.7422 0L73.7422 166.284L0 166.284L0 0Z" fill="rgb(203,114,103)" fill-rule="nonzero" transform="matrix(1,0,0,-1,225.016,258.639)" />
			<path id="path196" d="M0 0L66.9828 0L66.9828 2.52669L0 2.52669L0 0Z" fill="rgb(224,134,76)" fill-rule="nonzero" transform="matrix(1,0,0,-1,158.033,149.056)" />
			<path id="path198" d="M0 0L73.5744 0L73.5744 2.52669L0 2.52669L0 0Z" fill="rgb(181,80,65)" fill-rule="nonzero" transform="matrix(1,0,0,-1,225.016,149.056)" />
			<path id="path200" d="M0 0L0.0216912 0L0.0216912 2.52669L0 2.52669L0 0Z" fill="rgb(41,33,29)" fill-rule="nonzero" transform="matrix(1,0,0,-1,158.011,204.494)" />
			<path id="path202" d="M0 0L66.9828 0L66.9828 2.52669L0 2.52669L0 0Z" fill="rgb(224,134,76)" fill-rule="nonzero" transform="matrix(1,0,0,-1,158.033,204.494)" />
			<path id="path204" d="M0 0L73.5744 0L73.5744 2.52669L0 2.52669L0 0Z" fill="rgb(181,80,65)" fill-rule="nonzero" transform="matrix(1,0,0,-1,225.016,204.494)" />
			<path id="path206" d="M0 0L10.9195 0L10.9195 11.9111L0 11.9111L0 0Z" fill="rgb(165,92,71)" fill-rule="nonzero" transform="matrix(1,0,0,-1,183.763,158.588)" />
			<path id="path208" d="M0 0L10.2055 0L10.2055 9.28561L0 9.28561L0 0Z" fill="rgb(197,197,216)" fill-rule="nonzero" transform="matrix(1,0,0,-1,283.972,198.31)" />
			<path id="path210" d="M0 0L8.76824 0L8.76824 9.28561L0 9.28561L0 0Z" fill="rgb(170,101,91)" fill-rule="nonzero" transform="matrix(1,0,0,-1,251.9,198.31)" />
			<path id="path212" d="M0 0L8.76824 0L8.76824 9.28561L0 9.28561L0 0Z" fill="rgb(170,101,91)" fill-rule="nonzero" transform="matrix(1,0,0,-1,240.731,198.31)" />
			<path id="path214" d="M0 0L8.76824 0L8.76824 9.28561L0 9.28561L0 0Z" fill="rgb(170,101,91)" fill-rule="nonzero" transform="matrix(1,0,0,-1,229.911,198.31)" />
			<path id="path216" d="M0 0L8.76824 0L8.76824 9.28599L0 9.28599L0 0Z" fill="rgb(170,101,91)" fill-rule="nonzero" transform="matrix(1,0,0,-1,251.9,142.114)" />
			<path id="path218" d="M0 0L8.76824 0L8.76824 9.28599L0 9.28599L0 0Z" fill="rgb(170,101,91)" fill-rule="nonzero" transform="matrix(1,0,0,-1,240.731,142.114)" />
			<path id="path220" d="M0 0L8.76824 0L8.76824 9.28599L0 9.28599L0 0Z" fill="rgb(170,101,91)" fill-rule="nonzero" transform="matrix(1,0,0,-1,229.911,142.114)" />
			<path id="path222" d="M0 0L8.76824 0L8.76824 9.28562L0 9.28562L0 0Z" fill="rgb(170,101,91)" fill-rule="nonzero" transform="matrix(1,0,0,-1,251.9,254.333)" />
			<path id="path224" d="M0 0L8.76824 0L8.76824 9.28562L0 9.28562L0 0Z" fill="rgb(170,101,91)" fill-rule="nonzero" transform="matrix(1,0,0,-1,240.731,254.333)" />
			<path id="path226" d="M0 0L8.76824 0L8.76824 9.28562L0 9.28562L0 0Z" fill="rgb(170,101,91)" fill-rule="nonzero" transform="matrix(1,0,0,-1,229.911,254.333)" />
			<path id="path228" d="M0.00165473 0L0 0.000542534L1.94 9.84276L0.00165473 0Z" fill="rgb(197,197,216)" fill-rule="nonzero" transform="matrix(1,0,0,-1,226.911,194.671)" />
			<path id="path230" d="M4.2428 2.71268e-05L0 0.836128L1.52057 8.55724L0.00168186 0.83667L4.2428 0" fill="rgb(209,214,222)" fill-rule="nonzero" transform="matrix(1,0,0,-1,203.238,190.844)" />
			<path id="path232" d="M1.96443 0L0 0.387772L1.965 0.000542528L1.96446 0" fill="rgb(197,197,216)" fill-rule="nonzero" transform="matrix(1,0,0,-1,227.956,179.4)" />
			<path id="path234" d="M0 0L10.2055 0L10.2055 9.28622L0 9.28622L0 0Z" fill="rgb(197,197,216)" fill-rule="nonzero" transform="matrix(1,0,0,-1,283.972,254.856)" />
			<path id="path236" d="M0 0L10.2055 0L10.2055 9.28539L0 9.28539L0 0Z" fill="rgb(197,197,216)" fill-rule="nonzero" transform="matrix(1,0,0,-1,283.972,142.811)" />
			<path id="path238" d="M0 0L10.9195 0L10.9195 10.0928L0 10.0928L0 0Z" fill="rgb(165,92,71)" fill-rule="nonzero" transform="matrix(1,0,0,-1,182.786,102.448)" />
			<path id="path240" d="M0 0L10.9195 0L10.9195 14.9L0 14.9L0 0Z" fill="rgb(165,92,71)" fill-rule="nonzero" transform="matrix(1,0,0,-1,182.786,216.966)" />
			<path id="path242" d="M10.9195 6.78447L0 6.78447L0 0L10.9195 0L10.9195 6.78447Z" fill="rgb(165,92,71)" fill-rule="nonzero" transform="matrix(1,0,0,-1,182.786,258.853)" />
			<path id="path244" d="M18.5165 27.4406L7.1726 27.4406C4.95428 27.4406 2.90927 26.4894 1.56372 24.8317C0.217611 23.1733 -0.292942 20.9772 0.163167 18.8056L2.70094 6.72389C3.50594 2.89056 7.06705 0 10.9848 0L22.3282 0C24.547 0 26.5915 0.951118 27.9376 2.60944C29.2837 4.26723 29.7937 6.46388 29.3376 8.63556L26.7998 20.7161C25.9943 24.5494 22.4332 27.4406 18.5165 27.4406ZM18.5165 22.7928C20.2204 22.7928 21.9009 21.4283 22.2515 19.7606L24.7893 7.67945C25.1398 6.01167 24.032 4.64722 22.3281 4.64722L10.9848 4.64722C9.28038 4.64722 7.59927 6.01167 7.24926 7.67945L4.71149 19.7606C4.36093 21.4283 5.46871 22.7928 7.1726 22.7928L18.5165 22.7928Z" fill="rgb(46,45,44)" fill-rule="nonzero" transform="matrix(1,0,0,-1,88.6411,329.053)" />
			<path id="path246" d="M6.2819 1.35634e-05C5.44468 1.35634e-05 4.68913 0.577229 4.49635 1.42779L0.04579 21.0617C-0.178101 22.0489 0.440796 23.0305 1.42801 23.2539C2.41467 23.4772 3.39634 22.8589 3.62023 21.8722L8.07079 2.23778C8.29413 1.25111 7.67579 0.26945 6.68858 0.0455593C6.55247 0.0150011 6.4158 0 6.2819 0" fill="rgb(46,45,44)" fill-rule="nonzero" transform="matrix(1,0,0,-1,99.5405,326.132)" />
			<path id="path248" d="M0.000108507 7.42117C2.66288 7.22729 3.06622 4.08284 3.10289 2.71896C3.159 0.621188 6.59345 -0.108805 8.479 0.0128581C11.8034 0.226752 12.3223 3.08786 11.9701 5.68119C11.5557 8.73618 10.2901 9.51285 7.31012 9.51285C5.62456 9.51285 3.93957 9.6934 2.03346 9.36895C-0.0532091 9.01396 0.00012207 7.42117 0.00012207 7.42117" fill="rgb(248,164,120)" fill-rule="nonzero" transform="matrix(1,0,0,-1,104.393,309.094)" />
			<path id="path250" d="M0.000108507 7.42117C2.66288 7.22729 3.06677 4.08284 3.10345 2.71896C3.159 0.621188 6.59345 -0.108805 8.479 0.0128581C11.804 0.226752 12.3223 3.08786 11.9707 5.68119C11.5557 8.73618 10.2907 9.51285 7.31068 9.51285C5.62456 9.51285 3.94013 9.6934 2.03346 9.36895C-0.0532091 9.01396 0.00012207 7.42117 0.00012207 7.42117" fill="rgb(248,164,120)" fill-rule="nonzero" transform="matrix(1,0,0,-1,88.6499,309.094)" />
			<path id="path252" d="M125.726 3.09834C125.726 1.39389 124.332 0 122.628 0L3.09833 0C1.39445 0 0 1.39389 0 3.09834L0 12.0655C0 13.77 1.39445 15.1639 3.09833 15.1639L122.628 15.1639C124.332 15.1639 125.726 13.77 125.726 12.0655L125.726 3.09834" fill="rgb(46,45,44)" fill-rule="nonzero" transform="matrix(1,0,0,-1,78.21,451.092)" />
			<path id="path254" d="M134.082 3.09833C134.082 1.39444 132.688 0 130.984 0L3.09833 0C1.39389 0 0 1.39444 0 3.09833L0 12.0661C0 13.77 1.39389 15.1644 3.09833 15.1644L130.984 15.1644C132.688 15.1644 134.082 13.77 134.082 12.0661L134.082 3.09833Z" fill="rgb(46,45,44)" fill-rule="nonzero" transform="matrix(1,0,0,-1,76.0513,440.461)" />
			<path id="path256" d="M46.225 3.09833C46.225 1.39444 44.8305 0 43.1267 0L3.09833 0C1.39445 0 0 1.39444 0 3.09833L0 12.5894C0 14.2939 1.39445 15.6883 3.09833 15.6883L43.1267 15.6883C44.8305 15.6883 46.225 14.2939 46.225 12.5894L46.225 3.09833Z" fill="rgb(66,83,84)" fill-rule="nonzero" transform="matrix(1,0,0,-1,74.5015,440.461)" />
			<path id="path258" d="M2.32389 0C1.04055 0 0 1.04055 0 2.32389C0 3.60723 1.04055 4.64779 2.32389 4.64779C14.7322 4.64779 22.75 21.2028 22.75 46.8245C22.75 48.1078 23.7905 49.1484 25.0739 49.1484C26.3572 49.1484 27.3978 48.1078 27.3978 46.8245C27.3978 17.9422 17.79 0 2.32389 0Z" fill="rgb(46,45,44)" fill-rule="nonzero" transform="matrix(1,0,0,-1,144.675,320.299)" />
			<path id="path260" d="M1.5711 0C0.703315 0 0 0.703328 0 1.57056C0 2.43834 0.703342 3.14111 1.5711 3.14111C6.88832 3.14111 10.3361 5.72333 12.2239 18.92C14.1778 32.5805 14.3239 56.8711 14.3239 92.37C14.3239 93.2372 15.0272 93.9406 15.8944 93.9406C16.7622 93.9406 17.4655 93.2372 17.4655 92.37C17.4655 17.64 16.8827 0 1.57107 0" fill="rgb(46,45,44)" fill-rule="nonzero" transform="matrix(1,0,0,-1,184.172,364.05)" />
			<path id="path262" d="M0 3.81696C6.27778 1.04752 13.5189 -0.958035 19.8594 0.476406C19.99 1.40308 20.1261 2.3403 20.2622 3.28807C16.2728 2.14696 11.65 2.92696 7.78056 3.96863C5.24611 4.65474 2.79055 5.52918 0.403334 6.56585L0 3.81696Z" fill="rgb(239,235,231)" fill-rule="nonzero" transform="matrix(1,0,0,-1,51.4141,420.019)" />
			<path id="path264" d="M19.8594 0.476406C19.99 1.40308 20.1261 2.3403 20.2622 3.28807C16.2728 2.14696 11.65 2.92696 7.78056 3.96863C5.24611 4.65474 2.79055 5.52918 0.403334 6.56585L0 3.81696C6.27778 1.04752 13.5189 -0.958035 19.8594 0.476406Z" fill-rule="nonzero" stroke="rgb(239,235,231)" stroke-linejoin="round" stroke-width="0.628287971" transform="matrix(1,0,0,-1,51.4141,420.019)" />
			<path id="path266" d="M0 3.88636C6.26167 1.10579 13.5078 -0.935882 19.8645 0.44079C19.995 1.35191 20.1311 2.28413 20.2672 3.24247C16.3089 2.16858 11.7595 2.93858 7.94222 3.96969C5.35056 4.67136 2.84277 5.56692 0.402778 6.63525L0 3.88636Z" fill="rgb(239,235,231)" fill-rule="nonzero" transform="matrix(1,0,0,-1,50.7285,424.732)" />
			<path id="path268" d="M19.8645 0.44079C19.995 1.35191 20.1311 2.28413 20.2672 3.24247C16.3089 2.16858 11.7595 2.93858 7.94222 3.96969C5.35056 4.67136 2.84277 5.56692 0.402778 6.63525L0 3.88636C6.26167 1.10579 13.5078 -0.935882 19.8645 0.44079Z" fill-rule="nonzero" stroke="rgb(239,235,231)" stroke-linejoin="round" stroke-width="0.628287971" transform="matrix(1,0,0,-1,50.7285,424.732)" />
			<path id="path270" d="M1.04722 0C0.468897 0 0 0.468885 0 1.04722L0 10.4717C0 11.05 0.468884 11.5183 1.04722 11.5183C1.62555 11.5183 2.09445 11.05 2.09445 10.4717L2.09445 1.04722C2.09445 0.468885 1.62556 0 1.04722 0Z" fill="rgb(46,45,44)" fill-rule="nonzero" transform="matrix(1,0,0,-1,105.3,421.16)" />
			<path id="path272" d="M1.04723 0C0.468901 0 0 0.468885 0 1.04722L0 10.4717C0 11.05 0.468887 11.5183 1.04723 11.5183C1.62556 11.5183 2.09446 11.05 2.09446 10.4717L2.09446 1.04722C2.09446 0.468885 1.62558 0 1.04723 0Z" fill="rgb(46,45,44)" fill-rule="nonzero" transform="matrix(1,0,0,-1,101.373,421.16)" />
			<path id="path274" d="M1.04667 0C0.468344 0 0 0.468885 0 1.04722L0 10.4717C0 11.05 0.46833 11.5183 1.04667 11.5183C1.625 11.5183 2.0939 11.05 2.0939 10.4717L2.0939 1.04722C2.0939 0.468885 1.62502 0 1.04667 0Z" fill="rgb(46,45,44)" fill-rule="nonzero" transform="matrix(1,0,0,-1,97.4468,421.16)" />
			<path id="path276" d="M1.04667 0C0.468344 0 0 0.468885 0 1.04722L0 10.4717C0 11.05 0.46833 11.5183 1.04667 11.5183C1.625 11.5183 2.0939 11.05 2.0939 10.4717L2.0939 1.04722C2.0939 0.468885 1.62502 0 1.04667 0Z" fill="rgb(46,45,44)" fill-rule="nonzero" transform="matrix(1,0,0,-1,93.52,421.16)" />
			<path id="path278" d="M1.04723 0C0.468901 0 0 0.468885 0 1.04722L0 10.4717C0 11.05 0.468887 11.5183 1.04723 11.5183C1.62556 11.5183 2.09446 11.05 2.09446 10.4717L2.09446 1.04722C2.09446 0.468885 1.62558 0 1.04723 0Z" fill="rgb(46,45,44)" fill-rule="nonzero" transform="matrix(1,0,0,-1,89.5928,421.16)" />
			<path id="path280" d="M36.6372 33.6911L36.6372 0L0 0L0 33.6911L36.6372 33.6911" fill="rgb(234,150,87)" fill-rule="nonzero" transform="matrix(1,0,0,-1,217.273,92.4446)" />
			<path id="path282" d="M36.6372 33.6911L36.6372 0L0 0L0 33.6911L36.6372 33.6911Z" fill="rgb(179,93,89)" fill-rule="nonzero" transform="matrix(1,0,0,-1,213.608,92.4446)" />
			<path id="path284" d="M37.09 0L0 0L0 33.6911L37.09 33.6911L37.09 0Z" fill="rgb(203,114,103)" fill-rule="nonzero" transform="matrix(1,0,0,-1,253.91,92.4446)" />
			<path id="path286" d="M0 0L41.8735 0L41.8735 43.4447L0 43.4447L0 0Z" fill="rgb(243,218,179)" fill-rule="nonzero" transform="matrix(1,0,0,-1,167.729,92.4446)" />
			<path id="path288" d="M36.0422 0L0 0L0 43.4444L36.0422 43.4444L36.0422 0Z" fill="rgb(193,169,134)" fill-rule="nonzero" transform="matrix(1,0,0,-1,209.604,92.4446)" />
			<path id="path290" d="M8.96834 0L0 0L0 6.35389L8.96834 6.35389L8.96834 0Z" fill="rgb(165,92,71)" fill-rule="nonzero" transform="matrix(1,0,0,-1,184.182,55.5874)" />
			<path id="path292" d="M0 0L14.3939 0L14.3939 9.2854L0 9.2854L0 0Z" fill="rgb(254,250,244)" fill-rule="nonzero" transform="matrix(1,0,0,-1,191.299,90.4541)" />
			<path id="path294" d="M20.2561 0L2.72222 3.45668L20.2561 0.00390625L20.2561 2.71267e-05M0 12.0139L1.48611 19.5661L20.2561 15.8695L20.2561 15.8678L1.48722 19.5645L0 12.0139Z" fill="rgb(254,244,235)" fill-rule="nonzero" transform="matrix(1,0,0,-1,204.759,194.301)" />
			<path id="path296" d="M21.775 0L4.2411 3.45277L0 4.28944L1.51888 12.01L3.0061 19.5606L21.775 15.8639L21.775 2.71267e-05" fill="rgb(248,249,251)" fill-rule="nonzero" transform="matrix(1,0,0,-1,203.24,194.297)" />
			<path id="path298" d="M0 0L0.001 0L0.001 0.00387658L0 0.00387658L0 0Z" fill="rgb(209,214,222)" fill-rule="nonzero" transform="matrix(1,0,0,-1,225.015,194.301)" />
			<path id="path300" d="M1.895 2.71267e-05L0 0.37169L0 0.375569L1.89557 0.00222439L1.89502 0M3.83559 9.84445L4.9045 15.2728L4.90561 15.2722L3.83562 9.84445" fill="rgb(197,197,216)" fill-rule="nonzero" transform="matrix(1,0,0,-1,225.016,194.672)" />
			<path id="path302" d="M0.00102307 0L0 0L0 0.00164964L0.00102307 0Z" fill="rgb(209,214,222)" fill-rule="nonzero" transform="matrix(1,0,0,-1,225.015,178.433)" />
			<path id="path304" d="M2.93998 2.71265e-05L0 0.578907L0 0.580561L2.93998 0" fill="rgb(197,197,216)" fill-rule="nonzero" transform="matrix(1,0,0,-1,225.016,179.012)" />
			<path id="path306" d="M0 0L0.001 0L0.001 15.8639L0 15.8639L0 0Z" fill="rgb(200,218,238)" fill-rule="nonzero" transform="matrix(1,0,0,-1,225.015,194.297)" />
			<path id="path308" d="M1.89556 0L0 0.373345L0 16.2372L2.93999 15.6583L4.90442 15.2706L3.83552 9.84223L1.89553 0" fill="rgb(199,216,238)" fill-rule="nonzero" transform="matrix(1,0,0,-1,225.016,194.67)" />
			<path id="path310" d="M1.07 0L0 1.48389C0.0761173 1.53056 0.16611 1.55778 0.261663 1.55778L1.07 1.55778L1.07 0Z" fill="rgb(143,51,29)" fill-rule="nonzero" transform="matrix(1,0,0,-1,67.1001,285.708)" />
			<path id="path312" d="M2.52501 0L0.501114 0C0.22556 0 0 0.225003 0 0.500556L0 7.71833C0 7.89777 0.0961104 8.05611 0.239449 8.14499L1.30945 6.66111L1.30945 2.39C1.30945 2.11445 1.53446 1.88944 1.81001 1.88944L2.52446 1.88944C2.53224 1.26889 2.53335 0.637777 2.52502 0" fill="rgb(137,41,30)" fill-rule="nonzero" transform="matrix(1,0,0,-1,66.8604,292.369)" />
			<path id="path314" d="M8.58166 0L0.000556098 0C0.008884 0.637783 0.0077718 1.26891 0 1.88947L9.08221 1.88947L9.08221 0.500561C9.08221 0.225005 8.85721 0 8.58166 0Z" fill="rgb(105,24,42)" fill-rule="nonzero" transform="matrix(1,0,0,-1,69.3848,292.369)" />
			<path id="path316" d="M0 0.500555C0 0.225002 0.225003 0 0.500556 0L11.1056 0C11.3811 0 11.6061 0.225002 11.6061 0.500555L11.6061 7.13776C11.6061 7.41331 11.3811 7.63832 11.1056 7.63832L0.500556 7.63832C0.225003 7.63832 0 7.41331 0 7.13776L0 0.500555Z" fill="rgb(255,255,255)" fill-rule="nonzero" transform="matrix(1,0,0,-1,68.1699,290.48)" />
			<path id="path318" d="M0 0.501111C0 0.225558 0.225558 0 0.501111 0L2.04611 0C2.32166 0 2.54667 0.225558 2.54667 0.501111L2.54667 3.00222C2.54667 3.27722 2.32166 3.50278 2.04611 3.50278L0.501111 3.50278C0.225558 3.50278 0 3.27722 0 3.00222L0 0.501111Z" fill="rgb(181,182,190)" fill-rule="nonzero" transform="matrix(1,0,0,-1,72.6992,283.38)" />
			<path id="path320" d="M2.22501 0L0.501114 0C0.22556 0 0 0.225001 0 0.500553L0 2.17665C0 2.4522 0.22556 2.6772 0.501114 2.6772L2.22501 2.6772C2.50057 2.6772 2.72613 2.4522 2.72613 2.17665L2.72613 0.500553C2.72613 0.225001 2.50057 0 2.22501 0Z" fill="rgb(147,187,184)" fill-rule="nonzero" transform="matrix(1,0,0,-1,75.6143,287.124)" />
			<path id="path322" d="M3.74333 2.71267e-05C2.39499 2.71267e-05 1.14277 0.11225 0 0.32392C1.335 5.37671 5.60777 9.68557 13.3933 10.9211L13.4717 10.9367C14.3406 11.0728 15.2517 11.1672 16.215 11.23C16.5555 11.2506 16.8856 11.2617 17.215 11.2617C18.5033 6.96834 17.6861 2.65389 11.3828 1.03611C8.6011 0.323893 6.03333 0 3.74333 0" fill="rgb(248,154,15)" fill-rule="nonzero" transform="matrix(1,0,0,-1,58.9438,227.95)" />
		</g>
	</g>
</svg>
