<svg xmlns="http://www.w3.org/2000/svg" xmlns:xlink="http://www.w3.org/1999/xlink" version="1.1" width="256" height="256" viewBox="0 0 256 256" xml:space="preserve">
<g style="stroke: none; stroke-width: 0; stroke-dasharray: none; stroke-linecap: butt; stroke-linejoin: miter; stroke-miterlimit: 10; fill: none; fill-rule: nonzero; opacity: 1;" transform="translate(1.4065934065934016 1.4065934065934016) scale(2.81 2.81)">
	<linearGradient id="SVGID_2" gradientUnits="userSpaceOnUse" x1="44.9999" y1="80.474" x2="44.9999" y2="11.0001">
<stop offset="0%" style="stop-color:rgb(52,128,255);stop-opacity: 1"/>
<stop offset="100%" style="stop-color:rgb(2,190,255);stop-opacity: 1"/>
</linearGradient>
<path d="M 88.935 30.257 l -43 -22.725 c -0.585 -0.31 -1.284 -0.31 -1.869 0 l -43 22.725 c -0.813 0.429 -1.228 1.357 -1.007 2.25 C 0.28 33.398 1.081 34.025 2 34.025 h 7.513 V 80.7 c 0 1.104 0.896 2 2 2 h 66.975 c 1.104 0 2 -0.896 2 -2 V 34.025 H 88 c 0.919 0 1.72 -0.626 1.941 -1.519 C 90.162 31.614 89.747 30.686 88.935 30.257 z M 78.487 30.025 c -1.104 0 -2 0.896 -2 2 V 78.7 H 13.513 V 32.025 c 0 -1.104 -0.896 -2 -2 -2 h -1.448 L 45 11.563 l 34.936 18.462 H 78.487 z" style="stroke: none; stroke-width: 1; stroke-dasharray: none; stroke-linecap: butt; stroke-linejoin: miter; stroke-miterlimit: 10; fill: url(#SVGID_2); fill-rule: nonzero; opacity: 1;" transform=" matrix(1 0 0 1 0 0) " stroke-linecap="round"/>
	<linearGradient id="SVGID_3" gradientUnits="userSpaceOnUse" x1="45.0002" y1="80.474" x2="45.0002" y2="11.0001">
<stop offset="0%" style="stop-color:rgb(52,128,255);stop-opacity: 1"/>
<stop offset="100%" style="stop-color:rgb(2,190,255);stop-opacity: 1"/>
</linearGradient>
<path d="M 44.133 31.408 l -18.375 8.838 c -0.031 0.015 -0.053 0.039 -0.083 0.056 c -0.037 0.02 -0.078 0.03 -0.115 0.053 c -0.057 0.036 -0.1 0.085 -0.152 0.125 c -0.059 0.046 -0.117 0.089 -0.17 0.14 c -0.077 0.075 -0.142 0.159 -0.206 0.244 c -0.042 0.056 -0.087 0.108 -0.122 0.168 c -0.06 0.101 -0.102 0.209 -0.143 0.318 c -0.021 0.056 -0.05 0.108 -0.066 0.166 c -0.047 0.172 -0.076 0.349 -0.076 0.532 v 18.945 c 0 0.769 0.44 1.469 1.133 1.803 l 18.375 8.838 c 0.07 0.034 0.145 0.051 0.218 0.076 c 0.049 0.017 0.095 0.038 0.145 0.051 c 0.165 0.043 0.334 0.071 0.503 0.071 c 0.296 0 0.593 -0.065 0.867 -0.197 l 18.376 -8.838 c 0.692 -0.333 1.133 -1.034 1.133 -1.803 V 42.048 c 0 -0.182 -0.028 -0.36 -0.076 -0.532 c -0.016 -0.058 -0.045 -0.11 -0.066 -0.166 c -0.041 -0.109 -0.083 -0.217 -0.143 -0.318 c -0.036 -0.061 -0.081 -0.113 -0.123 -0.169 c -0.063 -0.085 -0.128 -0.168 -0.205 -0.243 c -0.053 -0.052 -0.113 -0.096 -0.172 -0.142 c -0.052 -0.04 -0.095 -0.089 -0.151 -0.124 c -0.036 -0.022 -0.076 -0.032 -0.112 -0.052 c -0.03 -0.017 -0.054 -0.042 -0.085 -0.057 l -18.376 -8.838 C 45.319 31.145 44.681 31.145 44.133 31.408 z M 28.625 45.229 L 43 52.143 v 14.506 l -14.375 -6.914 V 45.229 z M 47 66.649 V 52.144 l 11.904 -5.725 l 2.472 -1.189 v 14.506 L 47 66.649 z M 58.761 42.048 L 45 48.666 l -13.761 -6.618 L 45 35.43 L 58.761 42.048 z" style="stroke: none; stroke-width: 1; stroke-dasharray: none; stroke-linecap: butt; stroke-linejoin: miter; stroke-miterlimit: 10; fill: url(#SVGID_3); fill-rule: nonzero; opacity: 1;" transform=" matrix(1 0 0 1 0 0) " stroke-linecap="round"/>
</g>
</svg>